  0
SECTION
  2
HEADER
  9
$ANGBASE
  50
0.0
  9
$ANGDIR
  70
1
  9
$MEASUREMENT
  70
1
  0
ENDSEC
  0
SECTION
  2
TABLES
  0
TABLE
  2
LTYPE
  70
4
  0
LTYPE
  5
40F
  2
CONTINUOUS
  70
0
  3
Solid line
  72
65
  73
0
  40
0.0
  0
LTYPE
  5
410
  2
DASHDOT
 70
0
  3
Dash Dot ____ _ ____ _
 72
65
 73
4
 40
2.0
 49
1.25
 49
-0.25
 49
0.25
 49
-0.25
  0
LTYPE
  5
411
  2
DASHED
 70
0
  3
Dashed __ __ __ __ __
 72
65
 73
2
 40
0.75
 49
0.5
 49
-0.25
  0
LTYPE
  5
43B
  2
DOTTED
 70
0
  3
Dotted .  .  .  .
 72
65
 73
2
 40
0.2
 49
0.0
 49
-0.2
  0
ENDTAB
  0
TABLE
  2
STYLE
  70
4
  0
STYLE
  2
KICAD
  70
0
  40
0
  41
1
  42
1
  50
0
  71
0
  3
isocp.shx
  0
STYLE
  2
KICADB
  70
0
  40
0
  41
1
  42
1
  50
0
  71
0
  3
isocp.shx
  0
STYLE
  2
KICADI
  70
0
  40
0
  41
1
  42
1
  50
15
  71
0
  3
isocp.shx
  0
STYLE
  2
KICADBI
  70
0
  40
0
  41
1
  42
1
  50
15
  71
0
  3
isocp.shx
  0
ENDTAB
  0
TABLE
  2
LAYER
  70
1
  0
LAYER
  2
BLACK
  70
0
  62
7
  6
CONTINUOUS
  0
ENDTAB
  0
ENDSEC
  0
SECTION
  2
ENTITIES
0
ARC
8
BLACK
10
-57.0021
20
-0.425972
40
0.519582
50
-179.995
51
-102.103
0
LINE
8
BLACK
6
CONTINUOUS
10
57.5065
20
15.449
11
57.5219
21
-0.426007
0
LINE
8
BLACK
6
CONTINUOUS
10
-21.932
20
-9.05298
11
-57.111
21
-0.934006
0
LINE
8
BLACK
6
CONTINUOUS
10
-23.3791
20
84.4609
11
-26.6844
21
70.0981
0
LINE
8
BLACK
6
CONTINUOUS
10
93.4587
20
77.7377
11
105.106
21
27.2665
0
ARC
8
BLACK
10
57.0023
20
-0.425972
40
0.519556
50
-77.8915
51
-0.00330835
0
ARC
8
BLACK
10
57.9896
20
15.4265
40
0.483668
50
107.977
51
177.338
0
ARC
8
BLACK
10
-17.9917
20
8.16163
40
17.6598
50
-102.892
51
-90.0135
0
ARC
8
BLACK
10
17.9999
20
8.16163
40
17.6598
50
-89.9863
51
-77.1073
0
ARC
8
BLACK
10
-92.488
20
77.487
40
0.999979
50
89.9987
51
165.328
0
ARC
8
BLACK
10
34.7834
20
77.9467
40
6.30267
50
-98.1432
51
-80.7109
0
ARC
8
BLACK
10
-104.64
20
27.1829
40
0.4802
50
-195.469
51
-105.642
0
ARC
8
BLACK
10
104.634
20
27.1801
40
0.480176
50
-79.4719
51
10.3664
0
ARC
8
BLACK
10
92.4912
20
77.4843
40
1.00004
50
14.6741
51
89.9982
0
LINE
8
BLACK
6
CONTINUOUS
10
-57.5181
20
15.449
11
-57.5181
21
-0.425999
0
LINE
8
BLACK
6
CONTINUOUS
10
-104.769
20
26.7205
11
-57.852
21
15.8866
0
ARC
8
BLACK
10
-67.229
20
60.8642
40
17.6599
50
77.1074
51
85.7863
0
LINE
8
BLACK
6
CONTINUOUS
10
35.8008
20
71.7267
11
63.2936
21
78.0731
0
ARC
8
BLACK
10
-58.0013
20
15.4265
40
0.483676
50
2.66293
51
72.0217
0
LINE
8
BLACK
6
CONTINUOUS
10
-22.7886
20
84.7942
11
33.8907
21
71.7076
0
ARC
8
BLACK
10
-27.1469
20
70.2275
40
0.480221
50
-105.466
51
-15.6414
0
ARC
8
BLACK
10
-22.9168
20
84.3314
40
0.480122
50
74.5215
51
164.362
0
LINE
8
BLACK
6
CONTINUOUS
10
-17.9958
20
-9.49818
11
18.0042
21
-9.49818
0
LINE
8
BLACK
6
CONTINUOUS
10
104.721
20
26.7081
11
57.8404
21
15.8866
0
LINE
8
BLACK
6
CONTINUOUS
10
-92.4879
20
78.487
11
-65.9314
21
78.4764
0
LINE
8
BLACK
6
CONTINUOUS
10
-93.4553
20
77.7403
11
-105.103
21
27.311
0
LINE
8
BLACK
6
CONTINUOUS
10
21.9403
20
-9.05298
11
57.1113
21
-0.934004
0
LINE
8
BLACK
6
CONTINUOUS
10
92.4913
20
78.4844
11
67.2297
21
78.5183
0
ARC
8
BLACK
10
67.2339
20
60.8586
40
17.6597
50
90.0136
51
102.893
0
LINE
8
BLACK
6
CONTINUOUS
10
-63.2886
20
78.0789
11
-27.2749
21
69.7647
0
LINE
8
BLACK
6
CONTINUOUS
10
-25.9191
20
71.0532
11
-25.3567
21
73.4891
0
LINE
8
BLACK
6
CONTINUOUS
10
-26.8183
20
73.8265
11
-25.9185
21
77.724
0
LINE
8
BLACK
6
CONTINUOUS
10
-21.5344
20
70.0409
11
-25.9191
21
71.0532
0
LINE
8
BLACK
6
CONTINUOUS
10
-25.3567
20
73.4891
11
-26.8183
21
73.8265
0
LINE
8
BLACK
6
CONTINUOUS
10
-19.5099
20
78.8102
11
-21.5344
21
70.0409
0
LINE
8
BLACK
6
CONTINUOUS
10
-24.4569
20
77.3866
11
-23.8946
21
79.8225
0
LINE
8
BLACK
6
CONTINUOUS
10
-25.9185
20
77.724
11
-24.4569
21
77.3866
0
LINE
8
BLACK
6
CONTINUOUS
10
-23.8946
20
79.8225
11
-19.5099
21
78.8102
0
CIRCLE
8
BLACK
10
-76.467
20
66.8816
40
1.75
0
CIRCLE
8
BLACK
10
-84.1153
20
33.753
40
1.75
0
CIRCLE
8
BLACK
10
84.1137
20
33.7502
40
1.75
0
CIRCLE
8
BLACK
10
-50.444
20
19.565
40
1.75
0
CIRCLE
8
BLACK
10
50.4424
20
19.5622
40
1.75
0
CIRCLE
8
BLACK
10
22.8934
20
58.8725
40
1.75
0
CIRCLE
8
BLACK
10
-22.895
20
58.8753
40
1.75
0
CIRCLE
8
BLACK
10
0.003106
20
8.5003
40
1.75
0
CIRCLE
8
BLACK
10
76.4654
20
66.8788
40
1.75
  0
ENDSEC
  0
EOF
